<svg xmlns="http://www.w3.org/2000/svg" viewBox="0 0 30 30"><g><path d="M13.59.07A15.02 15.02 0 0 1 30 15a14.96 14.96 0 0 1-15 15 14.95 14.95 0 0 1-13.91-9.39A15.02 15.02 0 0 1 13.59.07Zm.5 4.97a9.98 9.98 0 0 0-8.92 11.81 9.98 9.98 0 0 0 12.64 7.75A10 10 0 0 0 14.1 5.04Z"/><path d="M11.3 6.52a9.3 9.3 0 0 1 11.23 3.1A9.24 9.24 0 0 1 12.3 23.86c.46-.79.9-1.6 1.12-2.49l.53-2.06c.26.47.75.77 1.25.94a3.7 3.7 0 0 0 2.28-.06 4.66 4.66 0 0 0 2.13-1.45 6.24 6.24 0 0 0 1.3-2.88c.18-.96.19-1.97-.1-2.92a5.18 5.18 0 0 0-1.35-2.23 5.7 5.7 0 0 0-2.22-1.35 7.2 7.2 0 0 0-3.57-.18 5.92 5.92 0 0 0-3.05 1.53 5.48 5.48 0 0 0-1.18 6.17c.32.65.78 1.27 1.45 1.57.09.05.24.05.27-.07.1-.33.16-.66.25-.99.03-.12.09-.28 0-.39a3.6 3.6 0 0 1-.71-1.82 4.08 4.08 0 0 1 3.25-4.38 4.76 4.76 0 0 1 2.6.18 3.64 3.64 0 0 1 2.35 3.83 5.37 5.37 0 0 1-.87 2.9 2.65 2.65 0 0 1-1.82 1.16c-.46.07-.97-.04-1.31-.38-.34-.3-.48-.78-.4-1.22.21-.96.6-1.87.78-2.83.08-.5.03-1.05-.33-1.43-.4-.4-1.08-.4-1.55-.12-.54.32-.85.93-.95 1.54-.11.64-.03 1.31.2 1.91.05.08 0 .15 0 .23l-1.09 4.57a8.5 8.5 0 0 0-.04 2.44 9.29 9.29 0 0 1-5.74-9.38 9.2 9.2 0 0 1 5.5-7.68Z"/></g></svg>